<?xml version="1.0" encoding="UTF-8" standalone="no"?>
<svg
   viewBox="0 0 1356.0001 53.999999"
   x="0px"
   y="0px"
   version="1.1"
   id="svg10"
   sodipodi:docname="title.svg"
   width="1356"
   height="54"
   inkscape:version="1.2.2 (732a01da63, 2022-12-09)"
   inkscape:export-filename="asset\rumahpetani_logo.svg"
   inkscape:export-xdpi="96"
   inkscape:export-ydpi="96"
   xml:space="preserve"
   xmlns:inkscape="http://www.inkscape.org/namespaces/inkscape"
   xmlns:sodipodi="http://sodipodi.sourceforge.net/DTD/sodipodi-0.dtd"
   xmlns="http://www.w3.org/2000/svg"
   xmlns:svg="http://www.w3.org/2000/svg"><sodipodi:namedview
     id="namedview4421"
     pagecolor="#505050"
     bordercolor="#eeeeee"
     borderopacity="1"
     inkscape:showpageshadow="0"
     inkscape:pageopacity="0"
     inkscape:pagecheckerboard="0"
     inkscape:deskcolor="#505050"
     showgrid="false"
     inkscape:zoom="0.49837466"
     inkscape:cx="609.98286"
     inkscape:cy="-50.163064"
     inkscape:window-width="1366"
     inkscape:window-height="705"
     inkscape:window-x="-8"
     inkscape:window-y="-8"
     inkscape:window-maximized="1"
     inkscape:current-layer="svg10" /><defs
     id="defs14"><clipPath
       clipPathUnits="userSpaceOnUse"
       id="clipPath1639"><g
         id="g1643"><rect
           style="fill:none;stroke:#000000;stroke-width:2.97851;stroke-linecap:round;stroke-dasharray:none"
           id="rect1641"
           width="72.021484"
           height="72.021484"
           x="1.2187272"
           y="1.2187271" /></g></clipPath><clipPath
       clipPathUnits="userSpaceOnUse"
       id="clipPath1645"><g
         id="g1649"><rect
           style="fill:none;stroke:#000000;stroke-width:2.97851;stroke-linecap:round;stroke-dasharray:none"
           id="rect1647"
           width="72.021484"
           height="72.021484"
           x="1.2187272"
           y="1.2187271" /></g></clipPath><clipPath
       clipPathUnits="userSpaceOnUse"
       id="clipPath1651"><g
         id="g1655"><rect
           style="fill:none;stroke:#000000;stroke-width:2.97851;stroke-linecap:round;stroke-dasharray:none"
           id="rect1653"
           width="72.021484"
           height="72.021484"
           x="1.2187272"
           y="1.2187271" /></g></clipPath><clipPath
       clipPathUnits="userSpaceOnUse"
       id="clipPath1657"><g
         id="g1661"><rect
           style="fill:none;stroke:#000000;stroke-width:2.97851;stroke-linecap:round;stroke-dasharray:none"
           id="rect1659"
           width="72.021484"
           height="72.021484"
           x="1.2187272"
           y="1.2187271" /></g></clipPath><clipPath
       clipPathUnits="userSpaceOnUse"
       id="clipPath1663"><g
         id="g1667"><rect
           style="fill:none;stroke:#000000;stroke-width:2.97851;stroke-linecap:round;stroke-dasharray:none"
           id="rect1665"
           width="72.021484"
           height="72.021484"
           x="1.2187272"
           y="1.2187271" /></g></clipPath><clipPath
       clipPathUnits="userSpaceOnUse"
       id="clipPath1669"><g
         id="g1673"><rect
           style="fill:none;stroke:#000000;stroke-width:2.97851;stroke-linecap:round;stroke-dasharray:none"
           id="rect1671"
           width="72.021484"
           height="72.021484"
           x="1.2187272"
           y="1.2187271" /></g></clipPath><clipPath
       clipPathUnits="userSpaceOnUse"
       id="clipPath1675"><g
         id="g1679"><rect
           style="fill:none;stroke:#000000;stroke-width:2.97851;stroke-linecap:round;stroke-dasharray:none"
           id="rect1677"
           width="72.021484"
           height="72.021484"
           x="1.2187272"
           y="1.2187271" /></g></clipPath><clipPath
       clipPathUnits="userSpaceOnUse"
       id="clipPath1681"><g
         id="g1685"><rect
           style="fill:none;stroke:#000000;stroke-width:2.97851;stroke-linecap:round;stroke-dasharray:none"
           id="rect1683"
           width="72.021484"
           height="72.021484"
           x="1.2187272"
           y="1.2187271" /></g></clipPath><clipPath
       clipPathUnits="userSpaceOnUse"
       id="clipPath1687"><g
         id="g1691"
         transform="matrix(0.74074074,0,0,0.71873907,4.2222214,3.6171625)"><rect
           style="fill:none;stroke:#000000;stroke-width:2.97851;stroke-linecap:round;stroke-dasharray:none"
           id="rect1689"
           width="72.021484"
           height="72.021484"
           x="1.2187272"
           y="1.2187271" /></g></clipPath></defs><g
     id="g2745"
     transform="translate(-2.000003)"><path
       style="color:#000000;display:inline;opacity:0.75;fill:#ffffff;stroke:#ffffff;stroke-width:6;stroke-linecap:round;stroke-linejoin:round;stroke-dasharray:none"
       d="M 6.5044642,2.9999997 A 1.5046081,1.3334667 0 0 0 5.000006,4.3333331 V 49.666667 A 1.5046081,1.3334667 0 0 0 6.5044642,51 H 1353.4955 A 1.5046081,1.3334667 0 0 0 1355,49.666667 V 4.3333331 a 1.5046081,1.3334667 0 0 0 -1.5045,-1.3333334 z"
       id="path1000-3" /><g
       id="g2559"
       transform="translate(5.3207102)"><text
         xml:space="preserve"
         style="font-weight:bold;font-size:20.8986px;font-family:Poppins;-inkscape-font-specification:'Poppins Bold';display:inline;opacity:1;fill:#333333;fill-opacity:1;stroke:#000000;stroke-width:0;stroke-linecap:round"
         x="1130.3917"
         y="32.820259"
         id="text1012"><tspan
           sodipodi:role="line"
           id="tspan1010"
           x="1130.3917"
           y="32.820259"
           style="font-style:normal;font-variant:normal;font-weight:bold;font-stretch:normal;font-family:Montserrat;-inkscape-font-specification:'Montserrat Bold';fill:#333333;fill-opacity:1;stroke-width:0">KTH Tumpak Rejo 1</tspan></text><g
         id="g925"
         href="https://rumah-petani.github.io/web/index.html"
         cursor="pointer"
         transform="matrix(0.26533652,0,0,0.26498796,12.409801,17.069136)"
         style="stroke-width:3.77127"><text
           xml:space="preserve"
           style="font-size:52.5921px;line-height:0.7;font-family:'Adobe Gothic Std';-inkscape-font-specification:'Adobe Gothic Std, Normal';fill:#808000;fill-opacity:1;stroke:#000000;stroke-width:0;stroke-linecap:round;stroke-dasharray:none"
           x="72.997833"
           y="34.402935"
           id="text1230"
           transform="scale(1.0072337,0.99281825)"
           inkscape:label="rumah petani"><tspan
             sodipodi:role="line"
             id="tspan1228"
             x="72.997833"
             y="34.402935"
             style="font-style:normal;font-variant:normal;font-weight:bold;font-stretch:normal;font-size:49.1467px;font-family:Montserrat;-inkscape-font-specification:'Montserrat Bold';fill:#333333;fill-opacity:1;stroke-width:0;stroke-dasharray:none">RUMAH</tspan><tspan
             style="font-style:normal;font-variant:normal;font-weight:bold;font-stretch:normal;font-family:Montserrat;-inkscape-font-specification:'Montserrat Bold';fill:#808000;fill-opacity:1;stroke-width:0;stroke-dasharray:none"
             sodipodi:role="line"
             id="tspan1822"
             x="72.997833"
             y="75.542786"><tspan
               id="tspan1826"
               style="font-style:normal;font-variant:normal;font-weight:bold;font-stretch:normal;font-family:Montserrat;-inkscape-font-specification:'Montserrat Bold';fill:#333333;fill-opacity:1;stroke-width:0;stroke-dasharray:none">PETA</tspan><tspan
               style="font-style:italic;font-variant:normal;font-weight:bold;font-stretch:normal;font-size:49.1467px;font-family:Montserrat;-inkscape-font-specification:'Montserrat Bold Italic';fill:#808080;fill-opacity:1;stroke-width:0;stroke-dasharray:none"
               id="tspan3235">ni</tspan></tspan><tspan
             sodipodi:role="line"
             x="72.997833"
             y="116.87525"
             style="font-style:normal;font-variant:normal;font-weight:bold;font-stretch:normal;font-size:38.6904px;font-family:Montserrat;-inkscape-font-specification:'Montserrat Bold';fill:#808000;fill-opacity:1;stroke-width:0;stroke-dasharray:none"
             id="tspan1774" /></text><g
           id="g3487"
           inkscape:label="black"
           style="fill:#333333;stroke-width:3.77127"><path
             style="fill:#333333;fill-opacity:1;stroke:#1a1a1a;stroke-width:0.533338;stroke-linecap:round;stroke-opacity:1"
             d="M 0,37.476659 V 0 h 37.476659 37.47666 v 37.476659 37.47666 H 37.476659 0 Z m 30.317203,34.250649 c -1.115613,-0.812801 -2.82003,-2.561793 -3.47515,-3.566031 -0.874262,-1.340164 -1.531017,-3.425512 -1.677017,-5.324907 l -0.114903,-1.494857 h -0.614147 c -1.972354,0 -7.997754,1.272676 -10.912569,2.304937 -3.9176028,1.387389 -7.4264219,3.460782 -9.5017472,5.614664 -1.1205134,1.162929 -1.1932427,1.287944 -1.1932427,2.051094 v 0.812683 l 14.0095529,-0.0056 14.009553,-0.0056 z m 41.807688,-0.47307 c 0,-0.84667 -0.03531,-0.905493 -1.281631,-2.135321 -2.875801,-2.837738 -7.482695,-5.152427 -13.175361,-6.619833 -1.610296,-0.415088 -6.122923,-1.157571 -7.035424,-1.157571 h -0.781447 l -0.0031,1.016466 c -0.007,2.308721 -0.978254,5.043734 -2.447546,6.891995 -0.665774,0.837497 -1.673677,1.73853 -2.859481,2.556286 -0.411001,0.283435 0.342252,0.300602 13.574406,0.30936 l 14.00956,0.0093 z m -32.350135,-0.05591 c 1.882186,-0.653762 3.224713,-1.359382 4.343819,-2.283072 2.515202,-2.076002 3.605732,-5.095477 3.082878,-8.535923 -0.183399,-1.206796 -0.890288,-3.697263 -1.112491,-3.919466 -0.03999,-0.03999 -0.597226,0.124733 -1.238317,0.366039 -2.078711,0.782424 -4.423977,1.156855 -7.246015,1.156855 -2.959833,0 -4.907417,-0.292981 -7.105962,-1.068971 -0.848903,-0.299625 -1.566459,-0.519767 -1.594566,-0.489203 -0.02811,0.03056 -0.269504,0.731743 -0.536431,1.558174 -0.643179,1.991331 -0.807792,5.068817 -0.355436,6.644993 0.582785,2.030643 1.936898,3.771899 3.894945,5.008519 1.326425,0.837713 2.007883,1.143814 3.978489,1.78708 1.651962,0.539252 1.696079,0.536699 3.889087,-0.225025 z M 3.4639415,66.271918 c 0.6210297,-0.687672 3.6803479,-2.603415 5.7360666,-3.591921 3.5498889,-1.706984 8.2363829,-3.053651 12.9854669,-3.731383 0.972272,-0.13875 2.145627,-0.253731 2.607456,-0.255513 0.679705,-0.0026 0.840141,-0.06218 0.842055,-0.312598 0.0012,-0.170147 0.236046,-0.980774 0.521657,-1.801391 l 0.519293,-1.492034 -0.389075,-0.266026 C 26.072869,54.674737 25.353096,54.033586 24.687366,53.396269 22.076169,50.896526 20.124455,47.02641 19.311235,42.735766 19.086467,41.549861 18.951377,41.18897 18.732236,41.18897 c -0.157207,0 -0.460844,-0.186294 -0.674751,-0.413988 -0.448005,-0.476878 -0.729784,-2.365387 -0.732027,-4.906109 -0.0014,-1.57946 0.126035,-1.876535 0.926736,-2.160495 0.267742,-0.09495 0.309359,-0.356833 0.309359,-1.94674 0,-1.010367 0.05059,-2.206106 0.112416,-2.657199 l 0.112417,-0.820168 H 10.807407 2.8284271 v 19.180272 c 0,10.549149 0.06722,19.180271 0.1493784,19.180271 0.082158,0 0.3009194,-0.167804 0.486136,-0.372896 z M 72.124891,47.464543 V 28.284271 h -7.866562 -7.866563 v 2.642004 2.642005 l 0.484525,0.232227 c 0.848613,0.406729 0.944368,0.869888 0.745505,3.605961 -0.206589,2.842365 -0.372503,3.384139 -1.133774,3.702219 -0.50795,0.212234 -0.566866,0.328463 -0.771557,1.522134 -0.308006,1.796153 -1.300101,4.671812 -2.23878,6.489267 -0.966969,1.872231 -2.711726,4.068735 -4.131961,5.201798 l -1.06159,0.846935 0.282436,0.655666 c 0.155341,0.360616 0.416389,1.132964 0.580107,1.716327 l 0.297671,1.06066 1.396582,0.124333 c 4.583623,0.408064 10.21613,1.819118 14.124505,3.538468 1.997961,0.878932 4.429524,2.305287 5.92202,3.473855 0.631976,0.494814 1.168936,0.901241 1.193242,0.903173 0.02431,0.0019 0.04419,-8.627611 0.04419,-19.17676 z M 40.987547,55.132 c 3.510578,-0.503046 6.726221,-2.29389 8.790553,-4.895604 1.735615,-2.187424 3.132925,-5.759966 3.689256,-9.432426 0.335982,-2.21789 0.549059,-8.432141 0.370183,-10.796126 L 53.70712,28.284271 H 37.481482 21.255845 l -0.12698,2.370821 c -0.229559,4.286059 0.148416,9.555251 0.907798,12.655198 1.242287,5.071275 3.768603,8.553585 7.61438,10.495765 2.820195,1.424245 7.131465,1.928503 11.336504,1.325945 z M 18.812104,14.0387 33.646734,2.9168155 18.45855,2.8711791 C 10.105051,2.8460792 3.170932,2.8634697 3.049398,2.9098252 2.8757449,2.9760597 2.8284271,5.4603123 2.8284271,14.511122 V 26.028137 L 3.4029514,25.594361 C 3.7189397,25.355783 10.653059,20.155736 18.812104,14.0387 Z M 72.066274,2.8876606 C 72.032616,2.8540021 65.114676,2.8467928 56.693076,2.8716393 L 41.381075,2.9168155 56.708788,14.433868 72.036503,25.950921 72.081988,14.449889 C 72.107003,8.1243217 72.099932,2.9213189 72.066272,2.8876606 Z M 43.122094,25.500038 c -0.01648,-0.191292 -9.623934,-7.197809 -9.815827,-7.158475 -0.08835,0.01811 -1.852093,1.227226 -3.919429,2.686926 -2.067334,1.4597 -3.940192,2.699529 -4.161903,2.755175 -0.634839,0.159334 -1.360081,-0.511813 -1.360081,-1.258634 0,-0.599314 0.09975,-0.732637 1.203893,-1.609165 l 0.408399,-0.324207 -2.264554,-1.666023 c -1.245505,-0.916313 -2.503649,-1.844996 -2.795875,-2.063742 l -0.531322,-0.39772 -5.993974,4.495124 c -3.296685,2.47232 -6.0340678,4.53522 -6.0830726,4.584225 -0.049005,0.049 7.8791106,0.0891 17.6180326,0.0891 9.738923,0 17.701994,-0.05966 17.695713,-0.132584 z m 11.855458,0.04582 c 0,-0.08669 -14.482112,-10.994674 -15.155766,-11.415378 -0.317259,-0.198131 -0.560488,-0.07933 -2.227243,1.087859 -1.0291,0.720655 -1.84944,1.385059 -1.82298,1.476455 0.02646,0.0914 2.707982,2.133915 5.958934,4.538934 l 5.910822,4.372761 3.668117,0.01306 c 2.017464,0.0072 3.668116,-0.02598 3.668116,-0.0737 z M 66.992055,25.389502 C 66.535377,24.960581 46.123813,9.7059029 45.882845,9.6134345 c -0.270763,-0.1039016 -3.89838,2.4256195 -3.89838,2.7183225 0,0.108655 3.931151,3.145799 8.735891,6.749208 l 8.735888,6.551656 h 3.897331 c 3.314847,0 3.858643,-0.03634 3.63848,-0.243119 z m -37.484804,-7.57925 c 0.875959,-0.60767 1.592016,-1.144629 1.591238,-1.193243 -0.0019,-0.119763 -5.396296,-4.047186 -5.640886,-4.106892 -0.18796,-0.04588 -3.348191,2.161139 -3.34939,2.339125 -0.0011,0.153543 5.370386,4.051047 5.593476,4.058629 0.117103,0.004 0.929605,-0.489949 1.805562,-1.097619 z m 5.726745,-4.047904 c 0.990397,-0.695019 1.866748,-1.321868 1.947446,-1.392999 0.0807,-0.07113 -0.336936,-0.501498 -0.928077,-0.956371 -0.964275,-0.741991 -1.074803,-0.892718 -1.074803,-1.4657014 0,-0.3512636 0.131653,-0.7841365 0.292564,-0.9619398 0.527595,-0.5829865 1.248489,-0.4037024 2.665651,0.6629399 0.720671,0.5424203 1.410059,0.9479413 1.531975,0.9011573 0.387495,-0.148695 3.818607,-2.6152674 3.811493,-2.740021 -0.0083,-0.146182 -5.624002,-4.3421706 -5.905043,-4.4122095 -0.216329,-0.053912 -9.918281,7.1523165 -9.896513,7.3507415 0.0117,0.106607 5.562201,4.271159 5.699152,4.276081 0.03049,0.0011 0.865758,-0.566659 1.856155,-1.261678 z"
             id="path3475" /><path
             style="fill:#333333;fill-opacity:1;stroke:#1a1a1a;stroke-width:0.533338;stroke-linecap:round;stroke-opacity:1"
             d="m 35.933346,47.366598 c -1.794198,-0.354117 -3.583211,-1.57875 -3.583211,-2.452816 0,-0.640219 0.668764,-1.249938 1.37098,-1.249938 0.303984,0 0.602565,0.08069 0.663513,0.179302 0.06095,0.09862 0.443504,0.352975 0.850123,0.56524 0.564549,0.294709 1.052705,0.387099 2.065132,0.390856 1.131168,0.0042 1.50393,-0.07879 2.538915,-0.565239 1.40614,-0.660894 1.920344,-0.707094 2.410832,-0.216606 0.462987,0.462987 0.449748,1.244294 -0.02981,1.759035 -0.518421,0.55646 -2.31001,1.347381 -3.586669,1.583384 -1.17633,0.217457 -1.626657,0.218588 -2.699809,0.0068 z"
             id="path3477" /><path
             style="fill:#333333;fill-opacity:1;stroke:#1a1a1a;stroke-width:0.533338;stroke-linecap:round;stroke-opacity:1"
             d="m 40.947645,34.281848 c -0.492455,-0.387365 -0.619838,-1.13677 -0.29606,-1.741754 0.562644,-1.05131 4.169114,-1.596347 6.086983,-0.919911 1.59029,0.560899 2.165241,1.23566 1.842283,2.162099 -0.244856,0.702393 -0.909451,0.992729 -1.612179,0.7043 -1.870448,-0.767713 -3.032279,-0.811196 -4.453877,-0.166692 -0.899591,0.407843 -1.003506,0.405321 -1.56715,-0.03804 z"
             id="path3479" /><path
             style="fill:#333333;fill-opacity:1;stroke:#1a1a1a;stroke-width:0.533338;stroke-linecap:round;stroke-opacity:1"
             d="m 26.724096,34.239091 c -0.540023,-0.574828 -0.507631,-1.412783 0.07225,-1.868913 1.516797,-1.193114 4.512969,-1.430539 6.48103,-0.513575 1.217941,0.567465 1.536897,1.080123 1.191224,1.914652 -0.342033,0.825739 -0.931896,0.974677 -2.014941,0.508764 -1.206009,-0.518811 -2.738907,-0.525026 -3.882495,-0.01574 -1.090355,0.485578 -1.370818,0.481754 -1.847063,-0.02519 z"
             id="path3481" /></g><g
           id="g3585"
           inkscape:label="green"
           style="stroke-width:3.77127"><path
             style="fill:#008000;fill-opacity:1;stroke:#1a1a1a;stroke-width:0;stroke-linecap:round;stroke-dasharray:none;stroke-opacity:1"
             d="M 9.5028014,24.504852 C 10.17976,23.981806 12.793228,22.008421 15.310507,20.119551 l 4.576871,-3.434308 2.620745,1.93866 2.620745,1.938659 -0.720395,0.699218 c -0.792448,0.769152 -0.918077,1.358293 -0.436316,2.046103 0.367746,0.525031 0.933423,0.729445 1.464577,0.529244 0.232557,-0.08766 2.022421,-1.257981 3.977476,-2.600724 1.955053,-1.342743 3.646362,-2.493813 3.758462,-2.557932 0.198785,-0.113703 3.860976,2.407855 7.734302,5.325361 l 1.927714,1.452012 H 25.553328 8.2719673 Z"
             id="path3570" /><path
             style="fill:#008000;fill-opacity:1;stroke:#1a1a1a;stroke-width:0;stroke-linecap:round;stroke-dasharray:none;stroke-opacity:1"
             d="m 41.931911,21.157941 c -3.140174,-2.351672 -5.725073,-4.355316 -5.744218,-4.452543 -0.03477,-0.176573 1.848833,-1.665114 2.857507,-2.258181 l 0.533427,-0.313638 7.213327,5.413875 c 3.967329,2.977631 7.32981,5.52514 7.472179,5.661132 0.222155,0.212207 -0.228921,0.245689 -3.181982,0.236189 l -3.440832,-0.01107 z"
             id="path3572" /><path
             style="fill:#008000;fill-opacity:1;stroke:#1a1a1a;stroke-width:0;stroke-linecap:round;stroke-dasharray:none;stroke-opacity:1"
             d="m 52.41429,20.128968 c -9.566855,-7.200934 -10.247612,-7.74992 -9.956053,-8.028903 0.553948,-0.530054 3.033055,-2.2005701 3.265726,-2.2005701 0.140357,0 1.464452,0.8909201 2.942431,1.9798221 2.494634,1.837923 17.200279,12.867482 17.799388,13.349934 0.212346,0.170999 -0.478913,0.216042 -3.356502,0.218716 l -3.623922,0.0034 -7.071068,-5.322365 z"
             id="path3574" /><path
             style="fill:#008000;fill-opacity:1;stroke:#1a1a1a;stroke-width:0;stroke-linecap:round;stroke-dasharray:none;stroke-opacity:1"
             d="m 30.622669,12.789257 -2.698267,-2.027134 0.931235,-0.756361 c 0.975241,-0.792103 5.579614,-4.2159492 7.573829,-5.6319567 l 1.162516,-0.8254529 2.769967,2.0707169 c 1.523483,1.1388943 2.770327,2.1272407 2.770766,2.1963253 0.0013,0.205234 -3.244033,2.4376534 -3.543693,2.4376534 -0.151554,0 -0.782583,-0.3570315 -1.402286,-0.7934037 C 37.567032,9.0232722 36.781674,8.6140257 36.441495,8.5502077 35.912398,8.4509485 35.763633,8.50318 35.412387,8.9115276 c -0.703921,0.818357 -0.559943,1.4476244 0.569897,2.4907734 l 0.980497,0.905266 -1.64341,1.154408 c -0.903876,0.634925 -1.723291,1.19941 -1.820923,1.254412 -0.09763,0.055 -1.391733,-0.812207 -2.875779,-1.92713 z"
             id="path3576" /><path
             style="fill:#008000;fill-opacity:1;stroke:#1a1a1a;stroke-width:0;stroke-linecap:round;stroke-dasharray:none;stroke-opacity:1"
             d="m 27.135223,18.347834 c -3.08373,-2.205498 -4.684583,-3.406065 -4.684583,-3.513225 0,-0.071 0.672192,-0.585694 1.493759,-1.143763 l 1.493759,-1.01467 2.660493,1.91323 c 1.463272,1.052277 2.660488,1.958852 2.66048,2.014611 -1.3e-5,0.09587 -2.917347,2.140602 -3.037148,2.128712 -0.03104,-0.0031 -0.295079,-0.176283 -0.58676,-0.384895 z"
             id="path3578" /></g><g
           id="g3662"
           style="display:inline;stroke-width:3.77127"
           inkscape:label="white"><path
             style="fill:#ffffff;fill-opacity:1;stroke:#1a1a1a;stroke-width:0;stroke-linecap:round;stroke-dasharray:none;stroke-opacity:1"
             d="M 33.322407,54.807567 C 31.450932,54.406662 30.151503,53.918983 28.822676,53.118805 25.07919,50.864597 22.685061,46.705806 21.733279,40.803969 21.427362,38.907029 21.151411,29.790588 21.373164,28.907053 l 0.11194,-0.446005 h 16.083312 16.083311 l 0.0166,1.811961 c 0.07405,8.086705 -0.235691,11.269456 -1.44193,14.816466 -0.551918,1.622945 -1.795521,3.974472 -2.727728,5.157853 -1.902232,2.414762 -5.243135,4.236414 -8.663252,4.723694 -2.006606,0.28589 -5.80074,0.203344 -7.51301,-0.163455 z m 6.413439,-7.594802 c 1.370723,-0.471598 2.363565,-1.014394 2.678879,-1.464568 0.438285,-0.62574 0.35436,-1.467391 -0.188935,-1.894746 -0.605715,-0.476455 -0.728523,-0.466969 -2.333196,0.180212 -1.942721,0.783518 -3.507535,0.779768 -4.910059,-0.01177 -1.141387,-0.644159 -1.980055,-0.629822 -2.450542,0.04189 -0.678441,0.96861 -0.130944,1.950265 1.548434,2.776319 1.918423,0.943638 3.661917,1.058523 5.655419,0.372658 z m -11.18641,-12.74131 c 1.077045,-0.424531 2.749771,-0.465024 3.651189,-0.08839 0.674628,0.281878 1.613034,0.344863 1.935007,0.129876 0.30247,-0.201965 0.600989,-0.858926 0.600989,-1.322618 0,-0.553249 -0.782855,-1.284189 -1.770273,-1.652878 -1.820184,-0.679632 -5.158706,-0.292973 -6.256727,0.724639 -0.617238,0.572037 -0.628152,1.52524 -0.02437,2.129017 0.525491,0.525491 0.714226,0.533626 1.86419,0.08035 z m 14.099838,-8.9e-5 c 1.177535,-0.447557 2.534679,-0.450038 3.822427,-0.007 1.45772,0.50153 2.300989,0.08019 2.300989,-1.149698 0,-0.753527 -0.391463,-1.182142 -1.541722,-1.688045 -1.697949,-0.746784 -5.51613,-0.421087 -6.490901,0.553685 -0.532441,0.532441 -0.4705,1.662853 0.121162,2.211188 0.564972,0.523596 0.614713,0.525818 1.788045,0.07986 z"
             id="path3656" /><path
             style="fill:#ffffff;fill-opacity:1;stroke:#1a1a1a;stroke-width:0;stroke-linecap:round;stroke-dasharray:none;stroke-opacity:1"
             d="m 35.147561,70.987831 c -4.183135,-1.519241 -6.715838,-4.167551 -7.135728,-7.461444 -0.192631,-1.511118 0.06005,-3.990625 0.564931,-5.543631 0.205457,-0.631977 0.403987,-1.203226 0.441179,-1.269442 0.03719,-0.06622 0.722601,0.100489 1.523131,0.370456 2.404636,0.810928 3.66356,0.986675 7.023974,0.980552 3.310153,-0.006 4.798552,-0.22078 7.206436,-1.039754 l 1.270947,-0.432277 0.349208,1.181368 c 0.785772,2.658261 0.93879,4.760896 0.473608,6.507935 -0.606223,2.276734 -2.420388,4.499372 -4.620344,5.660647 -1.468469,0.775151 -4.049609,1.654063 -4.826523,1.643494 -0.356855,-0.0049 -1.378723,-0.273911 -2.270819,-0.597904 z"
             id="path3658" /></g><g
           id="g3739"
           inkscape:label="grey"
           style="stroke-width:3.77127"><path
             style="fill:#808080;fill-opacity:1;stroke:#1a1a1a;stroke-width:0;stroke-linecap:round;stroke-dasharray:none;stroke-opacity:1"
             d="m 2.9168155,71.588883 c 0,-0.742577 0.5170963,-1.541895 1.6983532,-2.625282 3.0519185,-2.799059 7.2425553,-4.852693 12.6359323,-6.192275 2.422498,-0.601689 6.051591,-1.253036 6.981505,-1.253036 0.673625,0 0.686705,0.02918 0.871567,1.944543 0.131163,1.358959 0.794108,3.436041 1.460777,4.576775 0.261941,0.448203 1.171428,1.510973 2.021088,2.361711 l 1.544834,1.546796 H 16.523843 c -13.560865,0 -13.6070275,-0.0012 -13.6070275,-0.359232 z"
             id="path3733" /><path
             style="fill:#808080;fill-opacity:1;stroke:#1a1a1a;stroke-width:0;stroke-linecap:round;stroke-dasharray:none;stroke-opacity:1"
             d="m 45.095238,71.799137 c -0.05064,-0.08194 0.272814,-0.420023 0.718787,-0.751301 2.363262,-1.755477 4.115607,-5.347332 4.122778,-8.450631 l 0.0026,-1.130794 1.281631,0.10883 c 4.012116,0.340689 9.805782,1.888127 13.343369,3.563898 2.277354,1.078792 4.830154,2.809525 6.203792,4.20601 0.916414,0.931655 1.135935,1.269074 1.216519,1.869877 l 0.09833,0.733089 H 58.635183 c -7.39633,0 -13.489305,-0.06704 -13.539945,-0.148978 z"
             id="path3735" /></g></g></g></g></svg>
